<svg width="20" height="22" viewBox="0 0 20 22" fill="none" xmlns="http://www.w3.org/2000/svg">
<path d="M19.1288 15.4753C18.5243 14.4348 17.8037 12.4603 17.8037 8.96297V8.24016C17.8037 3.72963 14.1852 0.033225 9.73742 0.000203592C9.71663 0.00010174 9.69604 0 9.67526 0C7.51701 0.002807 5.44828 0.862838 3.92413 2.3909C2.39998 3.91897 1.54526 5.9899 1.54799 8.14815V8.96296C1.54799 12.4601 0.826975 14.4345 0.222229 15.4749C0.0777798 15.7224 0.00113094 16.0035 1.24195e-05 16.2901C-0.0011061 16.5766 0.0733453 16.8583 0.215859 17.1069C0.358372 17.3555 0.563908 17.5621 0.811741 17.7059C1.05957 17.8497 1.34094 17.9256 1.62747 17.9259H5.60138C5.60138 19.0064 6.03061 20.0427 6.79465 20.8067C7.55869 21.5708 8.59494 22 9.67545 22C10.756 22 11.7922 21.5708 12.5563 20.8067C13.3203 20.0427 13.7495 19.0064 13.7495 17.9259H17.7234C18.0099 17.9256 18.2913 17.8497 18.5391 17.7059C18.7869 17.5622 18.9924 17.3556 19.1349 17.1071C19.2774 16.8586 19.3519 16.5769 19.3508 16.2904C19.3497 16.0039 19.2732 15.7228 19.1288 15.4753ZM9.67545 20.3704C9.02737 20.3696 8.40605 20.1119 7.94779 19.6536C7.48953 19.1953 7.23175 18.574 7.23101 17.9259H12.1199C12.1192 18.574 11.8614 19.1953 11.4031 19.6536C10.9449 20.1119 10.3235 20.3696 9.67545 20.3704ZM1.63105 16.2939C2.33665 15.0802 3.17762 12.8232 3.17762 8.96297V8.14815C3.17492 6.42205 3.85801 4.76558 5.07663 3.54312C6.29524 2.32067 7.94956 1.63237 9.67565 1.62963C9.69216 1.62963 9.70877 1.62974 9.72529 1.62984C13.2811 1.65619 16.1741 4.62163 16.1741 8.24016V8.96297C16.1741 12.8232 17.0147 15.0802 17.7234 16.2963L1.63105 16.2939Z" fill="black"/>
</svg>
