<svg width="24" height="28" viewBox="0 0 24 28" fill="none" xmlns="http://www.w3.org/2000/svg">
<path d="M24 21.9998H4C3.64638 21.9998 3.30724 22.1403 3.05719 22.3904C2.80714 22.6404 2.66667 22.9795 2.66667 23.3332C2.66667 23.6868 2.80714 24.0259 3.05719 24.276C3.30724 24.526 3.64638 24.6665 4 24.6665H24V27.3332H4C2.93913 27.3332 1.92172 26.9117 1.17157 26.1616C0.421428 25.4115 0 24.394 0 23.3332V3.33317C0 2.62593 0.280951 1.94765 0.781048 1.44755C1.28115 0.947455 1.95942 0.666504 2.66667 0.666504H24V21.9998ZM2.66667 19.3998C2.88267 19.3558 3.10533 19.3332 3.33333 19.3332H21.3333V3.33317H2.66667V19.3998ZM17.3333 9.99984H6.66667V7.33317H17.3333V9.99984Z" fill="black"/>
</svg>
