<svg width="42" height="42" viewBox="0 0 42 42" fill="none" xmlns="http://www.w3.org/2000/svg">
<path d="M12.5996 33.6C10.2896 33.6 8.42071 35.49 8.42071 37.8C8.42071 40.11 10.2896 42 12.5996 42C14.9095 42 16.7994 40.11 16.7994 37.8C16.7994 35.49 14.9095 33.6 12.5996 33.6ZM0 0V4.2H4.19986L11.7596 20.139L8.92469 25.284C8.58871 25.872 8.39971 26.565 8.39971 27.3C8.39971 29.61 10.2896 31.5 12.5996 31.5H37.7987V27.3H13.4815C13.1875 27.3 12.9566 27.069 12.9566 26.775L13.0196 26.523L14.9095 23.1H30.554C32.1289 23.1 33.5148 22.239 34.2288 20.937L41.7466 7.308C41.9198 6.98751 42.007 6.62756 41.9996 6.26331C41.9921 5.89906 41.8903 5.54297 41.7041 5.22982C41.518 4.91667 41.2537 4.65716 40.9373 4.47667C40.6208 4.29617 40.2629 4.20084 39.8986 4.2H8.8407L6.86676 0H0ZM33.5988 33.6C31.2889 33.6 29.42 35.49 29.42 37.8C29.42 40.11 31.2889 42 33.5988 42C35.9088 42 37.7987 40.11 37.7987 37.8C37.7987 35.49 35.9088 33.6 33.5988 33.6Z" fill="#2C698D"/>
</svg>
