<svg width="17" height="15" viewBox="0 0 17 15" fill="none" xmlns="http://www.w3.org/2000/svg">
<path fill-rule="evenodd" clip-rule="evenodd" d="M2.45339 0.181141C2.32544 0.0619232 2.15622 -0.00297988 1.98137 0.00010515C1.80652 0.00319018 1.6397 0.0740225 1.51604 0.197679C1.39238 0.321336 1.32155 0.488163 1.31846 0.663013C1.31538 0.837863 1.38028 1.00708 1.4995 1.13503L14.5479 14.1835C14.6097 14.2498 14.6842 14.303 14.767 14.3398C14.8498 14.3767 14.9392 14.3966 15.0298 14.3982C15.1204 14.3998 15.2104 14.3831 15.2945 14.3492C15.3785 14.3152 15.4549 14.2647 15.519 14.2006C15.583 14.1365 15.6336 14.0602 15.6675 13.9761C15.7015 13.8921 15.7181 13.8021 15.7165 13.7115C15.7149 13.6208 15.6951 13.5315 15.6582 13.4487C15.6213 13.3659 15.5681 13.2914 15.5018 13.2296L13.9315 11.6593C15.2684 10.6468 16.2967 9.28196 16.9012 7.71774C17.0331 7.37453 17.0331 6.99458 16.9012 6.65137C16.2476 4.9536 15.095 3.49368 13.5953 2.46397C12.0955 1.43426 10.319 0.883079 8.49976 0.883057C7.00952 0.880592 5.5422 1.2499 4.23067 1.95753L2.45339 0.181141ZM6.4777 4.20366L7.46039 5.18634C7.88493 4.96445 8.36921 4.88385 8.84273 4.9563C9.31625 5.02874 9.75429 5.25044 10.0931 5.58912C10.4318 5.92779 10.6537 6.36576 10.7263 6.83927C10.7988 7.31277 10.7184 7.79707 10.4966 8.22168L11.4784 9.20436C11.9496 8.51156 12.1643 7.6761 12.0856 6.84197C12.0069 6.00784 11.6396 5.22729 11.0472 4.63486C10.4548 4.04242 9.67423 3.6752 8.8401 3.59649C8.00597 3.51778 7.17051 3.7325 6.4777 4.20366Z" fill="#9E9E9E"/>
<path d="M9.17366 10.7188L11.4441 12.9892C10.4975 13.3161 9.5029 13.4825 8.50144 13.4815C4.6697 13.4815 1.39769 11.0878 0.0991426 7.71318C-0.0330475 7.3697 -0.0330475 6.98938 0.0991426 6.64591C0.538711 5.50881 1.20458 4.4728 2.05641 3.60067L4.96396 6.50912C4.85408 7.08579 4.88691 7.68058 5.05958 8.24165C5.23226 8.80272 5.53953 9.31304 5.95463 9.72814C6.36974 10.1432 6.88006 10.4505 7.44113 10.6232C8.0022 10.7959 8.59699 10.8287 9.17366 10.7188Z" fill="#9E9E9E"/>
</svg>
