<svg width="24" height="27" viewBox="0 0 24 27" fill="none" xmlns="http://www.w3.org/2000/svg">
<path d="M3 23.5H7.5V14.5H16.5V23.5H21V10L12 3.25L3 10V23.5ZM3 26.5C2.175 26.5 1.469 26.2065 0.882 25.6195C0.294 25.0315 0 24.325 0 23.5V10C0 9.525 0.1065 9.075 0.3195 8.65C0.5315 8.225 0.825 7.875 1.2 7.6L10.2 0.85C10.475 0.65 10.7625 0.5 11.0625 0.4C11.3625 0.3 11.675 0.25 12 0.25C12.325 0.25 12.6375 0.3 12.9375 0.4C13.2375 0.5 13.525 0.65 13.8 0.85L22.8 7.6C23.175 7.875 23.469 8.225 23.682 8.65C23.894 9.075 24 9.525 24 10V23.5C24 24.325 23.7065 25.0315 23.1195 25.6195C22.5315 26.2065 21.825 26.5 21 26.5H13.5V17.5H10.5V26.5H3Z" fill="black"/>
</svg>
