<svg width="28" height="28" viewBox="0 0 28 28" fill="none" xmlns="http://www.w3.org/2000/svg">
<path d="M12.5001 14C12.5001 14.3978 12.6581 14.7794 12.9394 15.0607C13.2207 15.342 13.6022 15.5 14.0001 15.5C14.3979 15.5 14.7794 15.342 15.0607 15.0607C15.342 14.7794 15.5001 14.3978 15.5001 14C15.5001 13.6022 15.342 13.2206 15.0607 12.9393C14.7794 12.658 14.3979 12.5 14.0001 12.5C13.6022 12.5 13.2207 12.658 12.9394 12.9393C12.6581 13.2206 12.5001 13.6022 12.5001 14ZM18.7501 14C18.7501 14.3978 18.9081 14.7794 19.1894 15.0607C19.4707 15.342 19.8522 15.5 20.2501 15.5C20.6479 15.5 21.0294 15.342 21.3107 15.0607C21.592 14.7794 21.7501 14.3978 21.7501 14C21.7501 13.6022 21.592 13.2206 21.3107 12.9393C21.0294 12.658 20.6479 12.5 20.2501 12.5C19.8522 12.5 19.4707 12.658 19.1894 12.9393C18.9081 13.2206 18.7501 13.6022 18.7501 14ZM6.25005 14C6.25005 14.3978 6.40809 14.7794 6.68939 15.0607C6.9707 15.342 7.35223 15.5 7.75005 15.5C8.14788 15.5 8.52941 15.342 8.81072 15.0607C9.09202 14.7794 9.25005 14.3978 9.25005 14C9.25005 13.6022 9.09202 13.2206 8.81072 12.9393C8.52941 12.658 8.14788 12.5 7.75005 12.5C7.35223 12.5 6.9707 12.658 6.68939 12.9393C6.40809 13.2206 6.25005 13.6022 6.25005 14ZM26.9126 8.575C26.2063 6.89687 25.1938 5.39063 23.9032 4.09688C22.6216 2.81061 21.1002 1.78819 19.4251 1.0875C17.7063 0.365625 15.8813 0 14.0001 0H13.9376C12.0438 0.009375 10.2094 0.384375 8.48443 1.12188C6.82367 1.82975 5.3165 2.85399 4.04693 4.1375C2.76881 5.42812 1.76568 6.92813 1.07193 8.6C0.35318 10.3313 -0.00931978 12.1719 5.52194e-05 14.0656C0.0106591 16.2358 0.524092 18.3741 1.50006 20.3125V25.0625C1.50006 25.4437 1.65151 25.8094 1.92109 26.079C2.19067 26.3485 2.55631 26.5 2.93756 26.5H7.69068C9.6291 27.476 11.7673 27.9894 13.9376 28H14.0032C15.8751 28 17.6907 27.6375 19.4001 26.9281C21.0667 26.2358 22.5824 25.2253 23.8626 23.9531C25.1532 22.675 26.1688 21.1812 26.8782 19.5156C27.6157 17.7906 27.9907 15.9562 28.0001 14.0625C28.0094 12.1594 27.6407 10.3125 26.9126 8.575ZM22.1907 22.2625C20.0001 24.4313 17.0938 25.625 14.0001 25.625H13.9469C12.0626 25.6156 10.1907 25.1469 8.53756 24.2656L8.27505 24.125H3.87506V19.725L3.73443 19.4625C2.85318 17.8094 2.38443 15.9375 2.37506 14.0531C2.36256 10.9375 3.55318 8.0125 5.73756 5.80937C7.91881 3.60625 10.8344 2.3875 13.9501 2.375H14.0032C15.5657 2.375 17.0813 2.67812 18.5094 3.27812C19.9032 3.8625 21.1532 4.70312 22.2282 5.77812C23.3001 6.85 24.1438 8.10312 24.7282 9.49687C25.3344 10.9406 25.6376 12.4719 25.6313 14.0531C25.6126 17.1656 24.3907 20.0813 22.1907 22.2625Z" fill="black"/>
</svg>
